<?xml version="1.0" encoding="UTF-8"?>
<svg width="24px" height="24px" viewBox="0 0 24 24" version="1.1" xmlns="http://www.w3.org/2000/svg" xmlns:xlink="http://www.w3.org/1999/xlink">
    <title>4c95a5b0-45ed-495e-a5db-6f10093d85d1@1.00x</title>
    <g id="icons" stroke="none" stroke-width="1" fill="none" fill-rule="evenodd">
        <g id="icon/retry" fill="#ffffff">
            <path d="M20.5,0 C21.3284271,0 22,0.671572875 22,1.5 L22,6 C22,7.27842712 21.0284271,8.25 19.75,8.25 L15.25,8.25 C14.4215729,8.25 13.75,7.57842712 13.75,6.75 C13.75,5.92157288 14.4215729,5.25 15.25,5.25 L16.9882059,5.24978211 C15.6114568,4.28952227 13.9760802,3.75 12.25,3.75 C7.67842712,3.75 4,7.42842712 4,12 C4,16.5715729 7.67842712,20.25 12.25,20.25 C14.8034315,20.25 17.1185182,19.0756807 18.7286968,17.0629574 C19.2462111,16.4160645 20.1901497,16.3111825 20.8370426,16.8286968 C21.4839355,17.3462111 21.5888175,18.2901497 21.0713032,18.9370426 C18.905872,21.6438315 15.7394256,23.25 12.25,23.25 C6.02157288,23.25 1,18.2284271 1,12 C1,5.77157288 6.02157288,0.75 12.25,0.75 C14.7349202,0.75 17.0757902,1.56763806 19.000689,3.0027123 L19,1.5 C19,0.671572875 19.6715729,0 20.5,0 Z" id="🎨icon-fill"></path>
        </g>
    </g>
</svg>
