<svg width="51" height="15" viewBox="0 0 51 15" fill="none" xmlns="http://www.w3.org/2000/svg">
<path d="M14.8453 9.00551C14.4322 9.00551 14.0284 8.88229 13.685 8.65143C13.3415 8.42056 13.0738 8.09243 12.9157 7.70852C12.7576 7.32461 12.7163 6.90217 12.7969 6.49462C12.8775 6.08706 13.0764 5.7127 13.3685 5.41887C13.6606 5.12503 14.0327 4.92493 14.4379 4.84387C14.843 4.7628 15.263 4.8044 15.6446 4.96342C16.0263 5.12244 16.3524 5.39174 16.5819 5.73724C16.8114 6.08275 16.9339 6.48896 16.9339 6.9045C16.9372 7.18132 16.8854 7.456 16.7816 7.7124C16.6778 7.96879 16.5241 8.20171 16.3295 8.39746C16.1349 8.59322 15.9033 8.74785 15.6485 8.85228C15.3936 8.9567 15.1205 9.0088 14.8453 9.00551ZM18.6744 4.72296V3.27676H16.1414C15.725 3.12877 15.287 3.05184 14.8453 3.04915C12.6593 3.04915 10.9396 4.72296 10.9396 6.90684C10.9396 9.09072 12.6593 10.7645 14.8453 10.7645C17.0314 10.7645 18.7499 9.09072 18.7499 6.91267C18.7499 6.17499 18.5526 5.45131 18.1581 4.91321L18.6744 4.72296ZM6.41434 9.00551C6.00125 9.00551 5.59744 8.88229 5.25397 8.65143C4.9105 8.42056 4.6428 8.09243 4.48472 7.70852C4.32664 7.32461 4.28527 6.90217 4.36586 6.49462C4.44645 6.08706 4.64537 5.7127 4.93747 5.41887C5.22957 5.12503 5.60172 4.92493 6.00687 4.84387C6.41202 4.7628 6.83197 4.8044 7.21361 4.96342C7.59525 5.12244 7.92145 5.39174 8.15095 5.73724C8.38045 6.08275 8.50294 6.48896 8.50294 6.9045C8.50621 7.18132 8.45442 7.456 8.35061 7.7124C8.24681 7.96879 8.09308 8.20171 7.89849 8.39746C7.70389 8.59322 7.47234 8.74785 7.21746 8.85228C6.96258 8.9567 6.68952 9.0088 6.41434 9.00551ZM6.41434 3.05266C4.22942 3.05266 2.50981 4.72646 2.50981 6.91034C2.50981 9.09422 4.22942 10.7645 6.41434 10.7645C8.59925 10.7645 10.3189 9.09072 10.3189 6.91267C10.3189 4.73463 8.59925 3.06083 6.41434 3.06083V3.05266ZM0 10.5509H1.80432V0.198789H0V10.5509ZM19.4693 10.5509H21.2736V3.27676H19.4693V10.5509ZM14.8453 13.1328C14.5723 13.1359 14.3014 13.0842 14.0486 12.9805C13.7958 12.8768 13.5661 12.7234 13.373 12.5292C13.18 12.335 13.0274 12.1039 12.9244 11.8496C12.8213 11.5953 12.7699 11.3228 12.773 11.0482H10.9396C10.9396 13.232 12.6593 14.9 14.8453 14.9C17.0314 14.9 18.7499 13.2274 18.7499 11.0482H16.9177C16.9208 11.3228 16.8693 11.5953 16.7663 11.8496C16.6632 12.1039 16.5107 12.335 16.3176 12.5292C16.1246 12.7234 15.8949 12.8768 15.6421 12.9805C15.3892 13.0842 15.1183 13.1359 14.8453 13.1328V13.1328ZM27.913 6.15514C28.1532 5.19101 28.8854 4.65176 29.8299 4.65176C30.7744 4.65176 31.4799 5.17701 31.705 6.15514H27.913ZM29.8728 3.04915C27.7019 3.04915 26.0519 4.72296 26.0519 6.94886C26.0519 9.14791 27.5603 10.7645 29.9007 10.7645C31.1979 10.7645 32.3536 10.2813 33.1995 9.37435L31.987 8.17094C31.3952 8.73821 30.7605 9.15024 29.9436 9.15024C28.9562 9.15024 28.2089 8.58297 27.956 7.63285H33.5801V7.19047C33.5801 4.70895 32.0578 3.04915 29.8728 3.04915V3.04915ZM45.8449 3.04915C45.437 3.04046 45.0319 3.11782 44.6556 3.27624C44.2792 3.43466 43.9401 3.67062 43.66 3.96893V0.198789H41.8556V10.5509H43.66V6.59519C43.66 5.54468 44.3225 4.82217 45.4225 4.82217C46.4517 4.82217 47.0156 5.46064 47.0156 6.59519V10.5509H48.82V6.26836C48.82 4.2549 47.5656 3.04915 45.8449 3.04915V3.04915ZM38.059 4.80816C38.8202 4.80816 39.441 5.20502 39.9156 5.75829L41.1699 4.51052C40.7985 4.04798 40.3277 3.67616 39.7929 3.42305C39.2581 3.16993 38.6732 3.04209 38.0822 3.04915C35.8973 3.04915 34.1777 4.72296 34.1777 6.90684C34.1777 9.09072 35.8973 10.7645 38.0822 10.7645C38.6748 10.773 39.2615 10.6459 39.798 10.3927C40.3345 10.1395 40.8068 9.76694 41.1792 9.30315L39.9248 8.05422C39.4607 8.59348 38.8248 9.00434 38.0497 9.00434C36.8894 9.00434 36.0052 8.09624 36.0052 6.90333C36.0052 5.71043 36.8929 4.80233 38.0637 4.80233L38.059 4.80816ZM24.8312 1.03569H23.0211V3.27676H22.0464V4.89337H23.0187V10.5509H24.8312V4.89337H25.8186V3.27676H24.8312V1.03569ZM20.3569 0.000360174C20.1999 -0.000598452 20.0443 0.0300387 19.8992 0.0904695C19.7541 0.1509 19.6225 0.239905 19.5121 0.352247C19.4018 0.46459 19.3148 0.598003 19.2565 0.744639C19.1981 0.891275 19.1694 1.04817 19.1722 1.2061C19.1722 1.52589 19.2985 1.83257 19.5233 2.05869C19.7481 2.28482 20.053 2.41185 20.3709 2.41185C20.6887 2.41185 20.9936 2.28482 21.2184 2.05869C21.4432 1.83257 21.5695 1.52589 21.5695 1.2061C21.5716 1.046 21.5415 0.887115 21.4811 0.738962C21.4208 0.590809 21.3313 0.456429 21.2181 0.343863C21.1049 0.231296 20.9703 0.142857 20.8223 0.083835C20.6743 0.0248132 20.5161 -0.00357797 20.3569 0.000360174V0.000360174ZM49.5208 2.56826H49.7888L50.0836 3.05499H50.2715L49.9501 2.54141C49.9929 2.53947 50.0348 2.52867 50.0733 2.50968C50.1117 2.49069 50.1458 2.46392 50.1735 2.43104C50.2011 2.39817 50.2218 2.3599 50.2341 2.31864C50.2463 2.27737 50.25 2.234 50.2449 2.19124C50.2449 1.92045 50.0569 1.81306 49.7888 1.81306H49.3595V3.05382H49.5208V2.56826ZM49.5208 1.97531H49.7888C50.0035 1.97531 50.0836 2.05585 50.0836 2.19124C50.0836 2.32664 50.0035 2.40718 49.7888 2.40718H49.5208V1.97531ZM49.7888 3.64794C50.0239 3.6454 50.253 3.57313 50.4473 3.44018C50.6417 3.30724 50.7928 3.11953 50.8816 2.9006C50.9703 2.68166 50.9929 2.44124 50.9464 2.20945C50.9 1.97767 50.7865 1.76484 50.6203 1.59765C50.4541 1.43045 50.2425 1.31632 50.0121 1.26957C49.7817 1.22282 49.5427 1.24552 49.325 1.33483C49.1074 1.42414 48.9208 1.57609 48.7886 1.77163C48.6565 1.96716 48.5846 2.19759 48.5821 2.43403C48.5809 2.59373 48.6112 2.75209 48.6715 2.89986C48.7317 3.04764 48.8205 3.18188 48.9329 3.29476C49.0452 3.40764 49.1787 3.4969 49.3257 3.55733C49.4726 3.61777 49.6301 3.64817 49.7888 3.64677V3.64794ZM49.7888 1.40803C50.0569 1.41707 50.311 1.53054 50.4974 1.72448C50.6838 1.91842 50.7881 2.17766 50.7881 2.44745C50.7881 2.71724 50.6838 2.97648 50.4974 3.17042C50.311 3.36436 50.0569 3.47783 49.7888 3.48686C49.6502 3.49154 49.5121 3.46811 49.3827 3.41798C49.2533 3.36785 49.1352 3.29203 49.0355 3.19505C48.9358 3.09807 48.8565 2.98191 48.8024 2.85347C48.7483 2.72504 48.7204 2.58696 48.7204 2.44745C48.7204 2.30794 48.7483 2.16986 48.8024 2.04143C48.8565 1.91299 48.9358 1.79682 49.0355 1.69984C49.1352 1.60286 49.2533 1.52705 49.3827 1.47692C49.5121 1.42679 49.6502 1.40336 49.7888 1.40803V1.40803Z" fill="white"/>
</svg>
