<svg width="38" height="11" viewBox="0 0 38 11" fill="none" xmlns="http://www.w3.org/2000/svg">
<g clip-path="url(#clip0_2405_18322)">
<path d="M4.89064 6.39078L8.44611 0.151978H9.77379V10.574H7.89104V4.76709L5.54323 8.86231H4.23056L1.88275 4.76709V10.574H0V0.151978H1.32767L4.89064 6.39078Z" fill="#FF5000"/>
<path d="M13.8918 1.93564V4.09522H16.8922V5.87888H13.8918V8.78233H18.0099V10.566H12.0091V0.151978H17.8749V1.93564H13.8918Z" fill="#FF5000"/>
<path d="M18.64 0.151978H20.5827L23.2531 7.27062L25.9309 0.151978H27.8737L23.9206 10.574H22.593L18.64 0.151978Z" fill="#FF5000"/>
<path d="M32.8993 0C35.9147 0 37.9925 2.39954 37.9925 5.35897C37.9925 8.31841 35.9147 10.7179 32.8993 10.7179C29.8839 10.7179 27.8062 8.31841 27.8062 5.35897C27.8062 2.39954 29.8839 0 32.8993 0ZM32.8993 8.93429C34.7446 8.93429 36.1097 7.3266 36.1097 5.35897C36.1097 3.39135 34.7446 1.78366 32.8993 1.78366C31.0541 1.78366 29.6889 3.39135 29.6889 5.35897C29.6889 7.3266 31.0541 8.93429 32.8993 8.93429Z" fill="#FF5000"/>
</g>
<defs>
<clipPath id="clip0_2405_18322">
<rect width="38" height="10.7179" fill="white"/>
</clipPath>
</defs>
</svg>
