<svg width="32" height="32" viewBox="0 0 32 32" fill="none" xmlns="http://www.w3.org/2000/svg">
<path d="M26.7679 6.12147C24.7297 5.18831 22.5779 4.5263 20.3677 4.15234C20.0652 4.69303 19.7915 5.24933 19.5478 5.8189C17.1934 5.46412 14.7992 5.46412 12.4448 5.8189C12.2009 5.24939 11.9273 4.6931 11.6249 4.15234C9.41323 4.52946 7.26006 5.19304 5.21977 6.12635C1.16928 12.1191 0.071252 17.9631 0.620265 23.7241C2.99234 25.4766 5.64736 26.8095 8.46993 27.6647C9.10549 26.8099 9.66788 25.9031 10.1511 24.9538C9.23326 24.611 8.34736 24.1881 7.50367 23.6899C7.72572 23.5288 7.94288 23.3629 8.15273 23.2019C10.6077 24.3564 13.2871 24.955 16 24.955C18.7128 24.955 21.3922 24.3564 23.8472 23.2019C24.0595 23.3751 24.2766 23.541 24.4962 23.6899C23.6509 24.1889 22.7634 24.6126 21.8439 24.9563C22.3265 25.9051 22.889 26.8112 23.5251 27.6647C26.3501 26.813 29.0071 25.4807 31.3796 23.7265C32.0238 17.0456 30.2792 11.2554 26.7679 6.12147ZM10.8465 20.1811C9.31663 20.1811 8.05268 18.7927 8.05268 17.0847C8.05268 15.3766 9.27271 13.976 10.8417 13.976C12.4106 13.976 13.6648 15.3766 13.638 17.0847C13.6111 18.7927 12.4057 20.1811 10.8465 20.1811ZM21.1534 20.1811C19.621 20.1811 18.3619 18.7927 18.3619 17.0847C18.3619 15.3766 19.582 13.976 21.1534 13.976C22.7248 13.976 23.9692 15.3766 23.9423 17.0847C23.9155 18.7927 22.7126 20.1811 21.1534 20.1811Z" fill="#5865F2"/>
</svg>
