<svg width="32" height="32" viewBox="0 0 32 32" fill="none" xmlns="http://www.w3.org/2000/svg">
<path fill-rule="evenodd" clip-rule="evenodd" d="M10.732 3H21.2225C25.4859 3 28.9545 6.46855 28.9545 10.732V21.2225C28.9545 25.486 25.486 28.9545 21.2225 28.9545H10.732C6.46855 28.9545 3 25.486 3 21.2225V10.732C3 6.46855 6.46855 3 10.732 3ZM21.2225 26.3435C24.0507 26.3435 26.3435 24.0507 26.3435 21.2225V10.732C26.3435 7.90373 24.0507 5.61102 21.2225 5.61102H10.732C7.90378 5.61102 5.61102 7.90373 5.61102 10.732V21.2225C5.61102 24.0507 7.90378 26.3435 10.732 26.3435H21.2225Z" fill="url(#paint0_radial_214_653)"/>
<path fill-rule="evenodd" clip-rule="evenodd" d="M9.2645 15.9772C9.2645 12.2758 12.2758 9.2645 15.9773 9.2645C19.6787 9.2645 22.69 12.2758 22.69 15.9772C22.69 19.6786 19.6787 22.69 15.9773 22.69C12.2758 22.69 9.2645 19.6786 9.2645 15.9772ZM11.8755 15.9773C11.8755 18.2426 13.7119 20.079 15.9773 20.079C18.2426 20.079 20.079 18.2426 20.079 15.9773C20.079 13.7119 18.2426 11.8755 15.9773 11.8755C13.712 11.8755 11.8755 13.7119 11.8755 15.9773Z" fill="url(#paint1_radial_214_653)"/>
<circle cx="22.7028" cy="9.31498" r="1.60847" fill="#654C9F"/>
<defs>
<radialGradient id="paint0_radial_214_653" cx="0" cy="0" r="1" gradientUnits="userSpaceOnUse" gradientTransform="translate(3.47073 26.5745) rotate(-3.00009) scale(37.5312 31.9012)">
<stop stop-color="#FED576"/>
<stop offset="0.2634" stop-color="#F47133"/>
<stop offset="0.6091" stop-color="#BC3081"/>
<stop offset="1" stop-color="#4C63D2"/>
</radialGradient>
<radialGradient id="paint1_radial_214_653" cx="0" cy="0" r="1" gradientUnits="userSpaceOnUse" gradientTransform="translate(9.50799 21.4589) rotate(-3.00008) scale(19.4138 16.5015)">
<stop stop-color="#FED576"/>
<stop offset="0.2634" stop-color="#F47133"/>
<stop offset="0.6091" stop-color="#BC3081"/>
<stop offset="1" stop-color="#4C63D2"/>
</radialGradient>
</defs>
</svg>
