<svg width="75" height="13" viewBox="0 0 75 13" fill="none" xmlns="http://www.w3.org/2000/svg">
<path fill-rule="evenodd" clip-rule="evenodd" d="M3.06775 7.47171C3.06775 5.93 3.06775 5.15914 3.36764 4.57019C3.63114 4.05202 4.05295 3.6312 4.57111 3.36671C5.16007 3.06682 5.93092 3.06682 7.47263 3.06682H9.67508C11.2168 3.06682 11.9876 3.06682 12.5766 3.36671C13.0948 3.63021 13.5156 4.05202 13.7801 4.57019C14.08 5.15914 14.08 5.93 14.08 7.47171V8.10098C14.08 9.64269 14.08 10.4135 13.7801 11.0025C13.5166 11.5207 13.0948 11.9415 12.5766 12.206C11.9876 12.5059 11.2168 12.5059 9.67508 12.5059H5.58483C4.70385 12.5059 4.26336 12.5059 3.9271 12.3348C3.63114 12.1843 3.39025 11.9435 3.23981 11.6475C3.06873 11.3112 3.06873 10.8707 3.06873 9.98977V7.47171H3.06775ZM7.00068 7.78634C7.00068 7.35175 7.35268 6.99976 7.78727 6.99976C8.22186 6.99976 8.57386 7.35175 8.57386 7.78634V9.35952C8.57386 9.79411 8.22186 10.1461 7.78727 10.1461C7.35268 10.1461 7.00068 9.79411 7.00068 9.35952V7.78634ZM10.9336 6.99976C10.499 6.99976 10.147 7.35175 10.147 7.78634V9.35952C10.147 9.79411 10.499 10.1461 10.9336 10.1461C11.3682 10.1461 11.7202 9.79411 11.7202 9.35952V7.78634C11.7202 7.35175 11.3682 6.99976 10.9336 6.99976Z" fill="white"/>
<path fill-rule="evenodd" clip-rule="evenodd" d="M5.81513 0.689337C5.8692 1.11999 5.56243 1.51329 5.13178 1.56736C4.89384 1.59686 4.70309 1.63717 4.53397 1.68929C3.17711 2.11306 2.11423 3.17593 1.69046 4.5328C1.63737 4.70191 1.59804 4.89266 1.56756 5.1306C1.51348 5.56126 1.12117 5.86803 0.689529 5.81395C0.258873 5.75987 -0.0478961 5.36756 0.0061818 4.93592C0.0445279 4.6262 0.101555 4.34107 0.18808 4.06478C0.766221 2.21433 2.21551 0.765046 4.06595 0.187888C4.34224 0.101363 4.62738 0.0443357 4.9371 0.00598964C5.36874 -0.047105 5.76203 0.258681 5.81513 0.689337Z" fill="white"/>
<path d="M21.3797 5.14828C20.2451 5.14828 19.2216 5.85326 19.2216 6.91024C19.2216 7.90133 20.136 8.2317 21.0386 8.36345C21.6334 8.45195 21.8537 8.49521 21.8537 8.71545C21.8537 8.91407 21.6777 9.01239 21.4024 9.01239C20.7082 9.01239 20.4555 8.75871 19.8823 8.75871C19.3867 8.75871 19.1999 9.12251 19.1999 9.58463C19.1999 10.0802 20.0917 10.4322 21.2155 10.4322C22.7022 10.4322 23.4839 9.76063 23.4839 8.67022C23.4839 7.65749 22.7238 7.26027 21.5459 7.09508C21.1605 7.04002 20.8409 7.04002 20.8409 6.80896C20.8409 6.59953 21.1054 6.50023 21.4358 6.50023C21.8104 6.50023 22.2725 6.72047 22.6363 6.72047C23.1102 6.72047 23.3079 6.41174 23.3079 5.96043C23.3079 5.6517 23.1093 5.4757 22.8782 5.37639C22.4702 5.20334 22.008 5.14828 21.3797 5.14828Z" fill="white"/>
<path d="M24.4101 6.76654H24.7847C24.7955 7.28372 24.7739 7.82352 24.7739 8.34168C24.7739 9.7949 25.5447 10.3898 26.5575 10.3898C27.1297 10.3898 27.3618 10.3455 27.6144 10.1695C27.8131 10.0378 27.9114 9.84996 27.9114 9.43209C27.9114 9.08009 27.6803 8.72711 27.2841 8.72711C27.1189 8.72711 27.0747 8.78217 26.8544 8.78217C26.5683 8.78217 26.4906 8.4518 26.4906 8.18731V6.75573H27.2507C27.6469 6.75573 27.8455 6.40373 27.8455 5.99569C27.8455 5.48932 27.581 5.23565 27.1297 5.24646H26.5024C26.5132 4.87185 26.524 4.61916 26.524 4.40973C26.524 3.99087 26.2487 3.72737 25.7974 3.72737C25.1701 3.72737 24.8398 4.05773 24.8172 4.67422L24.7955 5.25826H24.4543C24.0473 5.25826 23.772 5.57781 23.772 5.99569C23.772 6.45879 23.948 6.76654 24.4101 6.76654Z" fill="white"/>
<path d="M28.6996 5.99583V6.98693C28.6996 7.73615 28.678 8.70464 28.678 9.55317C28.678 10.2031 29.0634 10.3791 29.559 10.3791C30.0545 10.3791 30.4616 10.1805 30.4734 9.66329C30.495 9.24443 30.4518 8.65056 30.4518 8.24252C30.4518 7.17472 30.8814 6.84436 31.4645 6.84436H31.608C32.082 6.84436 32.3022 6.39305 32.3022 5.9742C32.3022 5.40196 32.0377 5.14828 31.5422 5.14828C31.0574 5.14828 30.5176 5.47865 30.32 5.92995L30.2433 5.65465C30.1548 5.34591 29.9238 5.19253 29.5826 5.19253C29.03 5.19253 28.6996 5.46783 28.6996 5.99583Z" fill="white"/>
<path d="M34.4038 8.24233C35.7587 8.23151 36.4745 8.2089 36.6948 8.2089C37.4322 8.19808 37.5865 7.90016 37.5865 7.23943C37.5865 6.18245 36.6397 5.14711 35.2297 5.14711C33.7431 5.14711 32.576 6.29257 32.576 7.91098C32.576 9.30913 33.7323 10.4222 35.1855 10.4222C36.0773 10.4222 36.5728 10.2678 36.9583 10.0367C37.2228 9.88236 37.3653 9.64048 37.3653 9.37599C37.3653 8.92469 37.0458 8.52845 36.6495 8.52845C36.4509 8.52845 36.2749 8.58351 36.0881 8.68281C35.9121 8.78212 35.6034 8.88143 35.2956 8.88143C34.9328 8.88143 34.4805 8.672 34.4038 8.24233ZM35.2081 6.54625C35.5935 6.54625 35.8905 6.78812 35.8905 7.10767C35.8905 7.15192 35.8246 7.16274 35.7587 7.16274C35.3182 7.17355 34.8119 7.19617 34.393 7.19617C34.4255 6.8658 34.7676 6.54625 35.2081 6.54625Z" fill="white"/>
<path d="M43.694 6.83347L43.7048 5.98592C43.7048 5.47955 43.4295 5.20425 42.8681 5.20425C42.5928 5.20425 42.3509 5.28094 42.2073 5.47955C42.1523 5.55624 42.108 5.64474 42.0756 5.76567C41.8111 5.39106 41.349 5.18163 40.8426 5.18163C39.3668 5.18163 38.2331 6.21698 38.2331 7.90126C38.2331 9.33285 39.1799 10.4006 40.7108 10.4006C41.2949 10.4006 41.7678 10.1253 42.0323 9.69566C42.1759 10.1912 42.4177 10.3672 42.8032 10.3672C43.3095 10.3672 43.7284 10.2355 43.7284 9.61798C43.7068 9.24337 43.695 8.86876 43.695 8.49513V6.83347H43.694ZM40.0599 7.85701C40.0599 7.11959 40.4454 6.71154 41.0068 6.71154C41.5023 6.71154 41.9537 7.08616 41.9537 7.77934C41.9537 8.47252 41.4915 8.89137 40.9517 8.89137C40.4346 8.89236 40.0599 8.44105 40.0599 7.85701Z" fill="white"/>
<path d="M44.928 7.56035L44.9171 8.88182C44.8955 9.399 44.9063 9.44324 44.9063 9.5868C44.9063 10.1925 45.3576 10.3685 45.7873 10.3685C46.2829 10.3685 46.7233 10.159 46.7233 9.66349V7.79141C46.7125 7.2408 46.8335 6.64594 47.4608 6.64594C47.8796 6.64594 48.0773 7.10806 48.0773 7.49349C48.0881 8.52884 48.0556 8.83659 48.0556 9.65169C48.0556 10.1256 48.4076 10.3567 48.915 10.3675C49.3997 10.3783 49.8176 10.1807 49.8402 9.69594C49.851 9.34394 49.851 8.94671 49.851 8.63896C49.851 8.18766 49.851 7.82386 49.8618 7.37256C49.8618 6.97631 50.1814 6.66758 50.556 6.66758C51.0073 6.66758 51.1174 7.06382 51.1174 7.49349C51.1174 8.38529 51.084 9.02439 51.084 9.66251C51.084 10.0922 51.436 10.3675 51.9866 10.3675C52.317 10.3675 52.8568 10.279 52.8892 9.71757C52.9108 9.27708 52.9108 8.88084 52.9108 8.49541L52.9 7.26243C52.9 5.98521 52.2835 5.12587 50.8844 5.14848C50.3554 5.1593 49.7281 5.48966 49.4086 5.94097C49.1333 5.47885 48.6593 5.14848 47.9327 5.14848C47.4037 5.14848 46.8423 5.50048 46.6447 5.86427L46.6004 5.66566C46.5346 5.37954 46.2484 5.14848 45.8512 5.14848C45.2347 5.14848 44.9152 5.42379 44.9152 5.93015C44.9171 6.28313 44.9496 6.52501 44.928 7.56035Z" fill="white"/>
<path d="M54.1127 3.18779C54.0911 5.0048 54.0577 7.40586 54.1019 9.16781C54.1127 10.1589 54.509 10.4342 55.1264 10.3683C55.7764 10.3025 55.9632 10.0596 55.9858 9.53161C55.9966 9.16781 55.9641 8.74994 55.9641 8.28684C55.9641 6.56913 55.9641 4.89468 55.9976 3.18779C56.0084 2.63718 55.6338 2.37269 55.0507 2.37269C54.5424 2.37367 54.1235 2.62636 54.1127 3.18779Z" fill="white"/>
<path d="M62.3737 6.83347L62.3845 5.98592C62.3845 5.47955 62.1092 5.20425 61.5478 5.20425C61.2725 5.20425 61.0306 5.28094 60.887 5.47955C60.832 5.55624 60.7877 5.64474 60.7553 5.76567C60.4908 5.39106 60.0287 5.18163 59.5223 5.18163C58.0465 5.18163 56.9128 6.21698 56.9128 7.90126C56.9128 9.33285 57.8597 10.4006 59.3906 10.4006C59.9746 10.4006 60.4475 10.1253 60.712 9.69566C60.8556 10.1912 61.0975 10.3672 61.4829 10.3672C61.9892 10.3672 62.4081 10.2355 62.4081 9.61798C62.3865 9.24337 62.3747 8.86876 62.3747 8.49513V6.83347H62.3737ZM58.7397 7.85701C58.7397 7.11959 59.1251 6.71154 59.6865 6.71154C60.1821 6.71154 60.6334 7.08616 60.6334 7.77934C60.6334 8.47252 60.1712 8.89137 59.6314 8.89137C59.1143 8.89236 58.7397 8.44105 58.7397 7.85701Z" fill="white"/>
<path d="M63.6075 3.14445L63.6301 7.57097L63.5966 9.43223C63.5858 10.0045 63.7953 10.3348 64.3016 10.3574C64.7529 10.3791 65.0617 10.2473 65.161 9.82847L65.1944 9.68492C65.4481 10.1254 65.9869 10.4115 66.5493 10.4115C68.1126 10.4115 69.1706 9.211 69.1706 7.71353C69.1706 6.29276 68.1795 5.1473 66.7263 5.1473C66.1757 5.1473 65.6585 5.31248 65.3714 5.76378C65.3714 5.75297 65.3714 5.5986 65.4048 3.07661C65.4156 2.42669 64.9535 2.30575 64.4688 2.30575C63.9821 2.30674 63.6193 2.53878 63.6075 3.14445ZM67.3634 7.72533C67.3634 8.4077 66.8571 8.90325 66.3389 8.90325C65.8433 8.90325 65.392 8.46276 65.392 7.81284C65.392 7.04199 65.866 6.7008 66.4274 6.7008C66.9111 6.7008 67.3634 7.08623 67.3634 7.72533Z" fill="white"/>
<path d="M72.0859 5.14828C70.9512 5.14828 69.9277 5.85326 69.9277 6.91024C69.9277 7.90133 70.8421 8.2317 71.7447 8.36345C72.3396 8.45195 72.5598 8.49521 72.5598 8.71545C72.5598 8.91407 72.3838 9.01239 72.1085 9.01239C71.4143 9.01239 71.1617 8.75871 70.5884 8.75871C70.0929 8.75871 69.9061 9.12251 69.9061 9.58463C69.9061 10.0802 70.7979 10.4322 71.9217 10.4322C73.4083 10.4322 74.19 9.76063 74.19 8.67022C74.19 7.65749 73.43 7.26027 72.2521 7.09508C71.8666 7.04002 71.5471 7.04002 71.5471 6.80896C71.5471 6.59953 71.8116 6.50023 72.1419 6.50023C72.5165 6.50023 72.9787 6.72047 73.3425 6.72047C73.8164 6.72047 74.014 6.41174 74.014 5.96043C74.014 5.6517 73.8154 5.4757 73.5843 5.37639C73.1753 5.20334 72.7132 5.14828 72.0859 5.14828Z" fill="white"/>
</svg>
