<svg width="75" height="13" viewBox="0 0 75 13" fill="none" xmlns="http://www.w3.org/2000/svg">
<path fill-rule="evenodd" clip-rule="evenodd" d="M3.06769 7.4717C3.06769 5.92999 3.06769 5.15913 3.36757 4.57017C3.63108 4.05201 4.05289 3.63119 4.57105 3.3667C5.16001 3.06681 5.93086 3.06681 7.47257 3.06681H9.67502C11.2167 3.06681 11.9876 3.06681 12.5765 3.3667C13.0947 3.6302 13.5155 4.05201 13.78 4.57017C14.0799 5.15913 14.0799 5.92999 14.0799 7.4717V8.10097C14.0799 9.64268 14.0799 10.4135 13.78 11.0025C13.5165 11.5207 13.0947 11.9415 12.5765 12.206C11.9876 12.5059 11.2167 12.5059 9.67502 12.5059H5.58477C4.70379 12.5059 4.2633 12.5059 3.92703 12.3348C3.63108 12.1843 3.39019 11.9434 3.23975 11.6475C3.06867 11.3112 3.06867 10.8707 3.06867 9.98976V7.4717H3.06769ZM7.00062 7.78633C7.00062 7.35174 7.35262 6.99974 7.78721 6.99974C8.2218 6.99974 8.5738 7.35174 8.5738 7.78633V9.3595C8.5738 9.79409 8.2218 10.1461 7.78721 10.1461C7.35262 10.1461 7.00062 9.79409 7.00062 9.3595V7.78633ZM10.9336 6.99974C10.499 6.99974 10.147 7.35174 10.147 7.78633V9.3595C10.147 9.79409 10.499 10.1461 10.9336 10.1461C11.3681 10.1461 11.7201 9.79409 11.7201 9.3595V7.78633C11.7201 7.35174 11.3681 6.99974 10.9336 6.99974Z" fill="#878787"/>
<path fill-rule="evenodd" clip-rule="evenodd" d="M5.81513 0.689337C5.8692 1.11999 5.56243 1.51329 5.13178 1.56736C4.89384 1.59686 4.70309 1.63717 4.53397 1.68929C3.17711 2.11306 2.11423 3.17593 1.69046 4.5328C1.63737 4.70191 1.59804 4.89266 1.56756 5.1306C1.51348 5.56126 1.12117 5.86803 0.689529 5.81395C0.258873 5.75987 -0.0478961 5.36756 0.0061818 4.93592C0.0445279 4.6262 0.101555 4.34107 0.18808 4.06478C0.766221 2.21433 2.21551 0.765046 4.06595 0.187888C4.34224 0.101363 4.62738 0.0443357 4.9371 0.00598964C5.36874 -0.047105 5.76203 0.258681 5.81513 0.689337Z" fill="#878787"/>
<path d="M21.3798 5.14827C20.2451 5.14827 19.2216 5.85324 19.2216 6.91022C19.2216 7.90132 20.136 8.23169 21.0386 8.36344C21.6334 8.45193 21.8537 8.49519 21.8537 8.71544C21.8537 8.91405 21.6777 9.01237 21.4024 9.01237C20.7082 9.01237 20.4555 8.7587 19.8823 8.7587C19.3867 8.7587 19.1999 9.1225 19.1999 9.58462C19.1999 10.0802 20.0917 10.4322 21.2156 10.4322C22.7022 10.4322 23.4839 9.76061 23.4839 8.67021C23.4839 7.65748 22.7238 7.26025 21.5459 7.09507C21.1605 7.04001 20.8409 7.04001 20.8409 6.80895C20.8409 6.59952 21.1054 6.50021 21.4358 6.50021C21.8104 6.50021 22.2725 6.72046 22.6363 6.72046C23.1102 6.72046 23.3079 6.41172 23.3079 5.96042C23.3079 5.65168 23.1093 5.47568 22.8782 5.37638C22.4702 5.20333 22.008 5.14827 21.3798 5.14827Z" fill="#878787"/>
<path d="M24.4101 6.76656H24.7847C24.7955 7.28374 24.7739 7.82353 24.7739 8.3417C24.7739 9.79491 25.5447 10.3898 26.5574 10.3898C27.1297 10.3898 27.3617 10.3455 27.6144 10.1695C27.813 10.0378 27.9114 9.84998 27.9114 9.4321C27.9114 9.0801 27.6803 8.72712 27.2841 8.72712C27.1189 8.72712 27.0746 8.78218 26.8544 8.78218C26.5683 8.78218 26.4906 8.45182 26.4906 8.18733V6.75574H27.2506C27.6469 6.75574 27.8455 6.40374 27.8455 5.9957C27.8455 5.48934 27.581 5.23566 27.1297 5.24648H26.5024C26.5132 4.87187 26.524 4.61917 26.524 4.40975C26.524 3.99089 26.2487 3.72738 25.7974 3.72738C25.1701 3.72738 24.8397 4.05775 24.8171 4.67424L24.7955 5.25828H24.4543C24.0472 5.25828 23.7719 5.57783 23.7719 5.9957C23.7719 6.4588 23.9479 6.76656 24.4101 6.76656Z" fill="#878787"/>
<path d="M28.6996 5.99581V6.98691C28.6996 7.73614 28.6779 8.70462 28.6779 9.55315C28.6779 10.2031 29.0634 10.3791 29.5589 10.3791C30.0545 10.3791 30.4615 10.1805 30.4733 9.66327C30.495 9.24442 30.4517 8.65054 30.4517 8.2425C30.4517 7.17471 30.8814 6.84434 31.4644 6.84434H31.608C32.0819 6.84434 32.3021 6.39304 32.3021 5.97418C32.3021 5.40194 32.0377 5.14827 31.5421 5.14827C31.0574 5.14827 30.5176 5.47863 30.3199 5.92994L30.2433 5.65463C30.1548 5.3459 29.9237 5.19251 29.5825 5.19251C29.0299 5.19251 28.6996 5.46782 28.6996 5.99581Z" fill="#878787"/>
<path d="M34.4038 8.24234C35.7587 8.23152 36.4745 8.20891 36.6948 8.20891C37.4322 8.19809 37.5866 7.90017 37.5866 7.23944C37.5866 6.18247 36.6397 5.14712 35.2297 5.14712C33.7431 5.14712 32.576 6.29259 32.576 7.91099C32.576 9.30915 33.7323 10.4222 35.1855 10.4222C36.0773 10.4222 36.5728 10.2678 36.9583 10.0367C37.2228 9.88237 37.3653 9.6405 37.3653 9.37601C37.3653 8.9247 37.0458 8.52846 36.6495 8.52846C36.4509 8.52846 36.2749 8.58352 36.0881 8.68283C35.9121 8.78214 35.6034 8.88144 35.2956 8.88144C34.9328 8.88144 34.4805 8.67201 34.4038 8.24234ZM35.2081 6.54626C35.5935 6.54626 35.8905 6.78814 35.8905 7.10769C35.8905 7.15193 35.8246 7.16275 35.7587 7.16275C35.3182 7.17357 34.8119 7.19618 34.393 7.19618C34.4255 6.86581 34.7676 6.54626 35.2081 6.54626Z" fill="#878787"/>
<path d="M43.6939 6.83349L43.7047 5.98594C43.7047 5.47958 43.4294 5.20427 42.868 5.20427C42.5927 5.20427 42.3508 5.28097 42.2073 5.47958C42.1522 5.55627 42.108 5.64476 42.0755 5.7657C41.811 5.39109 41.3489 5.18166 40.8425 5.18166C39.3667 5.18166 38.233 6.217 38.233 7.90128C38.233 9.33287 39.1799 10.4007 40.7108 10.4007C41.2948 10.4007 41.7678 10.1254 42.0323 9.69569C42.1758 10.1912 42.4177 10.3672 42.8031 10.3672C43.3095 10.3672 43.7283 10.2355 43.7283 9.61801C43.7067 9.2434 43.6949 8.86879 43.6949 8.49516V6.83349H43.6939ZM40.0599 7.85704C40.0599 7.11961 40.4453 6.71157 41.0067 6.71157C41.5023 6.71157 41.9536 7.08618 41.9536 7.77936C41.9536 8.47254 41.4915 8.8914 40.9517 8.8914C40.4345 8.89238 40.0599 8.44108 40.0599 7.85704Z" fill="#878787"/>
<path d="M44.928 7.56038L44.9172 8.88185C44.8955 9.39903 44.9064 9.44327 44.9064 9.58683C44.9064 10.1925 45.3577 10.3685 45.7873 10.3685C46.2829 10.3685 46.7234 10.1591 46.7234 9.66352V7.79144C46.7126 7.24083 46.8335 6.64598 47.4608 6.64598C47.8797 6.64598 48.0773 7.1081 48.0773 7.49352C48.0881 8.52887 48.0557 8.83662 48.0557 9.65172C48.0557 10.1256 48.4077 10.3567 48.915 10.3675C49.3997 10.3783 49.8176 10.1807 49.8402 9.69597C49.851 9.34397 49.851 8.94674 49.851 8.63899C49.851 8.18769 49.851 7.82389 49.8619 7.37259C49.8619 6.97634 50.1814 6.66761 50.556 6.66761C51.0073 6.66761 51.1174 7.06385 51.1174 7.49352C51.1174 8.38532 51.084 9.02442 51.084 9.66254C51.084 10.0922 51.436 10.3675 51.9866 10.3675C52.317 10.3675 52.8568 10.279 52.8892 9.7176C52.9109 9.27711 52.9109 8.88087 52.9109 8.49544L52.9 7.26246C52.9 5.98524 52.2836 5.1259 50.8844 5.14851C50.3554 5.15933 49.7281 5.48969 49.4086 5.941C49.1333 5.47888 48.6594 5.14851 47.9328 5.14851C47.4038 5.14851 46.8423 5.50051 46.6447 5.8643L46.6005 5.66569C46.5346 5.37957 46.2485 5.14851 45.8512 5.14851C45.2348 5.14851 44.9152 5.42382 44.9152 5.93018C44.9172 6.28316 44.9496 6.52504 44.928 7.56038Z" fill="#878787"/>
<path d="M54.1127 3.18782C54.0911 5.00483 54.0577 7.40589 54.1019 9.16785C54.1127 10.1589 54.509 10.4343 55.1265 10.3684C55.7764 10.3025 55.9632 10.0596 55.9858 9.53164C55.9966 9.16785 55.9642 8.74997 55.9642 8.28687C55.9642 6.56916 55.9642 4.89471 55.9976 3.18782C56.0084 2.63721 55.6338 2.37272 55.0507 2.37272C54.5424 2.3737 54.1236 2.62639 54.1127 3.18782Z" fill="#878787"/>
<path d="M62.3737 6.83349L62.3845 5.98594C62.3845 5.47958 62.1092 5.20427 61.5477 5.20427C61.2724 5.20427 61.0306 5.28097 60.887 5.47958C60.8319 5.55627 60.7877 5.64476 60.7553 5.7657C60.4908 5.39109 60.0286 5.18166 59.5223 5.18166C58.0464 5.18166 56.9128 6.217 56.9128 7.90128C56.9128 9.33287 57.8596 10.4007 59.3905 10.4007C59.9746 10.4007 60.4475 10.1254 60.712 9.69569C60.8555 10.1912 61.0974 10.3672 61.4828 10.3672C61.9892 10.3672 62.4081 10.2355 62.4081 9.61801C62.3864 9.2434 62.3746 8.86879 62.3746 8.49516V6.83349H62.3737ZM58.7396 7.85704C58.7396 7.11961 59.1251 6.71157 59.6865 6.71157C60.182 6.71157 60.6333 7.08618 60.6333 7.77936C60.6333 8.47254 60.1712 8.8914 59.6314 8.8914C59.1142 8.89238 58.7396 8.44108 58.7396 7.85704Z" fill="#878787"/>
<path d="M63.6074 3.14443L63.6301 7.57095L63.5966 9.43221C63.5858 10.0045 63.7952 10.3348 64.3016 10.3574C64.7529 10.3791 65.0616 10.2473 65.1609 9.82846L65.1944 9.68491C65.448 10.1254 65.9869 10.4115 66.5493 10.4115C68.1126 10.4115 69.1706 9.21099 69.1706 7.71352C69.1706 6.29275 68.1795 5.14728 66.7263 5.14728C66.1756 5.14728 65.6585 5.31246 65.3714 5.76377C65.3714 5.75295 65.3714 5.59859 65.4048 3.07659C65.4156 2.42667 64.9535 2.30574 64.4687 2.30574C63.982 2.30672 63.6192 2.53876 63.6074 3.14443ZM67.3634 7.72532C67.3634 8.40768 66.857 8.90323 66.3389 8.90323C65.8433 8.90323 65.392 8.46275 65.392 7.81283C65.392 7.04197 65.8659 6.70079 66.4274 6.70079C66.9111 6.70079 67.3634 7.08622 67.3634 7.72532Z" fill="#878787"/>
<path d="M72.0859 5.14827C70.9512 5.14827 69.9277 5.85324 69.9277 6.91022C69.9277 7.90132 70.8421 8.23169 71.7447 8.36344C72.3396 8.45193 72.5598 8.49519 72.5598 8.71544C72.5598 8.91405 72.3838 9.01237 72.1085 9.01237C71.4143 9.01237 71.1617 8.7587 70.5884 8.7587C70.0929 8.7587 69.9061 9.1225 69.9061 9.58462C69.9061 10.0802 70.7979 10.4322 71.9217 10.4322C73.4083 10.4322 74.19 9.76061 74.19 8.67021C74.19 7.65748 73.43 7.26025 72.2521 7.09507C71.8666 7.04001 71.5471 7.04001 71.5471 6.80895C71.5471 6.59952 71.8116 6.50021 72.1419 6.50021C72.5165 6.50021 72.9787 6.72046 73.3425 6.72046C73.8164 6.72046 74.014 6.41172 74.014 5.96042C74.014 5.65168 73.8154 5.47568 73.5843 5.37638C73.1753 5.20333 72.7132 5.14827 72.0859 5.14827Z" fill="#878787"/>
</svg>
