<svg width="46" height="21" viewBox="0 0 46 21" fill="none" xmlns="http://www.w3.org/2000/svg">
<path d="M46 0H0V21H46V0Z" fill="#2100FF"/>
<path d="M28.81 9H30.77L31.22 10.2H32.39L30.51 4.95H29.1L27.21 10.2H28.38L28.83 9H28.81ZM29.77 5.91H29.83L30.56 8.02H29.05L29.78 5.91H29.77Z" fill="white"/>
<path d="M9.51 4.95H8.37V7.96C8.37 8.23 8.34 8.44 8.29 8.62C8.24 8.79 8.13 8.93 7.96 9.06C7.79 9.19 7.59 9.25 7.33 9.25C7.07 9.25 6.86 9.19 6.7 9.06C6.54 8.94 6.42 8.8 6.38 8.62C6.33 8.45 6.3 8.23 6.3 7.96V4.95H5.16V7.94C5.16 8.15 5.16 8.34 5.17 8.49C5.18 8.64 5.2 8.78 5.23 8.91C5.26 9.03 5.29 9.14 5.34 9.24C5.38 9.34 5.44 9.43 5.5 9.52C5.87 10.03 6.48 10.29 7.34 10.29C8.2 10.29 8.82 10.03 9.18 9.52C9.24 9.42 9.3 9.33 9.34 9.24C9.39 9.14 9.42 9.04 9.45 8.91C9.48 8.79 9.5 8.65 9.51 8.49C9.52 8.33 9.52 8.15 9.52 7.94H9.51V4.95Z" fill="white"/>
<path d="M11.65 4.95H10.51V10.2H14.07V9.12H11.65V4.95Z" fill="white"/>
<path d="M15.1 10.2H16.25V5.91H17.82V4.95H13.54V5.91H15.1V10.2Z" fill="white"/>
<path d="M16.08 14.35H17.97V13.51H16.08V12.55H18.12V11.74H15.1V16.2H18.19V15.28H16.08V14.35Z" fill="white"/>
<path d="M19.75 4.95H18.58V10.2H19.75V4.95Z" fill="white"/>
<path d="M20.33 11.74L18.73 16.2H19.72L20.09 15.18H21.76L22.13 16.2H23.11L21.51 11.74H20.32H20.33ZM20.29 14.35L20.9 12.56H20.96L21.57 14.35H20.28H20.29Z" fill="white"/>
<path d="M25.57 5.91H25.63V10.2H26.65V4.95H24.82L23.8 8.67H23.74L22.72 4.95H20.89V10.2H21.91V5.91H21.97L23.24 10.2H24.3L25.57 5.91Z" fill="white"/>
<path d="M26.85 14C26.98 13.79 27.05 13.49 27.05 13.13C27.05 12.89 27.01 12.68 26.93 12.51C26.85 12.33 26.73 12.19 26.58 12.07C26.43 11.95 26.25 11.87 26.04 11.81C25.83 11.75 25.59 11.73 25.33 11.73H23.56V16.19H24.53V14.62H25.3L26.12 16.19H27.29L26.23 14.49C26.51 14.37 26.72 14.2 26.85 13.98V14ZM25.97 13.59C25.86 13.7 25.68 13.75 25.43 13.75H24.53V12.55H25.43C25.68 12.55 25.86 12.6 25.97 12.7C26.08 12.8 26.14 12.95 26.14 13.14C26.14 13.33 26.08 13.48 25.97 13.58V13.59Z" fill="white"/>
<path d="M30.05 13.64L29.45 13.43C29.2 13.34 29.01 13.25 28.88 13.17C28.75 13.09 28.7 12.98 28.72 12.85C28.74 12.72 28.81 12.61 28.94 12.55C29.07 12.48 29.24 12.45 29.47 12.46C29.72 12.46 29.92 12.52 30.06 12.61C30.2 12.71 30.26 12.86 30.26 13.05H31.23C31.23 12.84 31.19 12.64 31.11 12.47C31.03 12.3 30.91 12.16 30.76 12.04C30.6 11.92 30.42 11.83 30.21 11.76C29.99 11.68 29.75 11.65 29.48 11.66C29.22 11.66 28.99 11.69 28.78 11.75C28.58 11.81 28.4 11.89 28.25 12C28.1 12.11 27.98 12.24 27.9 12.39C27.82 12.54 27.77 12.72 27.77 12.9C27.75 13.43 28.09 13.84 28.79 14.11C29.31 14.3 29.67 14.44 29.88 14.51C30.08 14.58 30.21 14.66 30.28 14.75C30.34 14.85 30.36 14.95 30.33 15.07C30.3 15.19 30.22 15.28 30.08 15.35C29.94 15.43 29.74 15.45 29.49 15.45C29.19 15.43 28.96 15.35 28.83 15.21C28.7 15.07 28.63 14.86 28.62 14.59H27.65C27.65 14.86 27.69 15.11 27.77 15.32C27.85 15.53 27.98 15.71 28.14 15.84C28.3 15.97 28.49 16.08 28.73 16.15C28.96 16.23 29.22 16.27 29.5 16.27C29.78 16.27 30.02 16.24 30.23 16.19C30.44 16.13 30.63 16.04 30.77 15.93C30.92 15.81 31.03 15.67 31.12 15.51C31.21 15.35 31.25 15.16 31.26 14.93C31.26 14.62 31.2 14.37 31.04 14.18C30.88 13.99 30.56 13.81 30.07 13.63L30.05 13.64Z" fill="white"/>
<path d="M31.65 15.67H31.85V16.19H31.95V15.67H32.15V15.58H31.65V15.67Z" fill="white"/>
<path d="M32.53 16.02L32.41 15.58H32.23V16.19H32.33V15.69H32.34L32.48 16.19H32.57L32.72 15.69V16.19H32.82H32.83V15.58H32.65L32.53 16.02Z" fill="white"/>
<path d="M32.23 5.91H33.8V10.2H34.94V5.91H36.51V4.95H32.23V5.91Z" fill="white"/>
<path d="M38.33 9.12V8.02H40.55V7.03H38.33V5.91H40.73V4.95H37.18V10.2H40.81V9.12H38.33Z" fill="white"/>
</svg>
